<?xml version="1.0" standalone="no"?>
<!DOCTYPE svg PUBLIC "-//W3C//DTD SVG 20010904//EN"
 "http://www.w3.org/TR/2001/REC-SVG-20010904/DTD/svg10.dtd">
<svg version="1.0" xmlns="http://www.w3.org/2000/svg"
 width="900.000000pt" height="900.000000pt" viewBox="0 0 900.000000 900.000000"
 preserveAspectRatio="xMidYMid meet">

<g transform="translate(0.000000,900.000000) scale(0.100000,-0.100000)"
fill="#000000" stroke="none">
<path d="M3823 7338 c-6 -7 -24 -49 -41 -93 -16 -44 -107 -280 -202 -525 -291
-753 -806 -2087 -895 -2320 -73 -188 -181 -470 -594 -1538 l-291 -754 0 -264
0 -264 168 0 167 0 144 468 c79 257 244 791 366 1187 332 1073 794 2565 965
3120 83 270 185 598 226 729 41 132 74 246 74 253 0 17 -74 17 -87 1z"/>
<path d="M4846 7341 c-3 -4 26 -109 64 -232 38 -123 145 -471 239 -774 93
-302 217 -705 276 -895 58 -190 182 -590 275 -890 93 -300 236 -763 318 -1030
198 -640 340 -1100 469 -1515 58 -187 111 -358 117 -380 l12 -40 167 -3 167
-2 0 269 0 269 -46 119 c-96 247 -388 1003 -434 1123 -26 69 -289 751 -584
1515 -296 765 -630 1631 -743 1925 -114 294 -208 537 -209 538 -6 8 -84 11
-88 3z"/>
<path d="M3315 7083 c-39 -58 -34 -73 23 -73 47 0 47 0 67 47 11 26 22 51 23
55 2 4 -17 8 -42 8 -41 0 -48 -3 -71 -37z"/>
<path d="M4067 7113 c-3 -5 -8 -29 -11 -55 l-7 -48 325 0 326 0 0 24 c0 13 -3
38 -6 55 l-6 31 -309 0 c-169 0 -310 -3 -312 -7z"/>
<path d="M5344 7068 c23 -52 24 -53 70 -56 42 -3 46 -1 46 19 0 12 -11 37 -26
56 -22 29 -31 33 -69 33 l-44 0 23 -52z"/>
<path d="M2998 6609 c-39 -58 -48 -79 -48 -115 l0 -44 93 0 94 0 49 107 c27
58 51 110 52 115 2 4 -41 8 -95 8 l-98 0 -47 -71z"/>
<path d="M3853 6568 l-30 -113 550 -3 c303 -1 551 -1 553 1 2 1 -10 52 -25
112 l-27 110 -496 3 -495 2 -30 -112z"/>
<path d="M5564 6568 l53 -113 91 -3 92 -3 0 47 c0 40 -7 58 -47 116 l-47 68
-97 0 -98 0 53 -112z"/>
<path d="M2735 6045 c-6 -5 -37 -47 -68 -92 -55 -78 -57 -83 -57 -147 l0 -66
123 0 123 0 68 149 c38 83 67 153 65 156 -7 11 -241 11 -254 0z"/>
<path d="M3775 6052 c-30 -3 -30 -3 -64 -145 -19 -78 -36 -148 -38 -154 -4
-10 140 -13 701 -13 388 0 706 2 706 5 0 2 -16 72 -36 155 l-36 150 -101 1
c-210 3 -1103 4 -1132 1z"/>
<path d="M5783 6053 c-13 -2 -23 -7 -23 -11 1 -4 31 -72 69 -152 l67 -145 122
-3 122 -3 1 33 c3 95 2 99 -47 170 -85 122 -78 118 -191 117 -54 -1 -108 -4
-120 -6z"/>
<path d="M2071 4979 l-121 -170 0 -130 0 -129 229 0 228 0 132 285 c72 156
134 291 137 300 5 13 -23 15 -239 15 l-245 0 -121 -171z"/>
<path d="M3501 5113 c-5 -21 -24 -105 -41 -188 -17 -82 -41 -198 -54 -257 -13
-59 -21 -110 -18 -113 6 -6 1982 -7 1982 -1 0 2 -24 120 -54 262 -30 143 -58
276 -61 297 l-7 37 -869 0 -868 0 -10 -37z"/>
<path d="M6077 5133 c4 -10 66 -144 138 -298 l131 -280 232 -3 232 -2 0 125 0
126 -122 174 -123 175 -247 0 c-231 0 -247 -1 -241 -17z"/>
<path d="M1033 3444 l-253 -394 0 -285 0 -285 383 0 382 0 284 673 c156 369
286 675 288 680 2 4 -184 7 -414 7 l-418 -1 -252 -395z"/>
<path d="M3105 3828 c-5 -16 -349 -1227 -365 -1286 -6 -24 -14 -50 -17 -58 -4
-12 215 -14 1652 -14 l1657 0 -7 28 c-3 15 -90 322 -193 682 l-188 655 -1267
3 c-1009 2 -1268 0 -1272 -10z"/>
<path d="M6642 3825 c2 -8 129 -314 283 -680 l280 -665 388 0 387 0 0 280 0
280 -257 400 -258 400 -413 0 c-361 0 -413 -2 -410 -15z"/>
</g>
</svg>
